<?xml version="1.0" encoding="utf-8"?><svg xml:space="preserve" viewBox="0 0 100 100" y="0px" x="0px" xmlns:xlink="http://www.w3.org/1999/xlink" xmlns="http://www.w3.org/2000/svg" id="Layer_1" version="1.1" width="200px" height="200px" style="width:100%;height:100%;background-size:initial;background-repeat-y:initial;background-repeat-x:initial;background-position-y:initial;background-position-x:initial;background-origin:initial;background-image:initial;background-color:rgb(255, 255, 255);background-clip:initial;background-attachment:initial;animation-play-state:paused" ><g class="ldl-scale" style="transform-origin:50% 50%;transform:rotate(0deg) scale(0.8, 0.8);animation-play-state:paused" ><path d="M90.74,30.89c-0.88-1.86-3.15-2.59-4.93-1.56l-0.01,0c1.79-1.03,2.29-3.37,1.11-5.06C79.47,13.61,67.53,6.32,53.84,5.16 C51.78,4.99,50,6.58,50,8.65c0-2.07-1.78-3.66-3.84-3.49c-13.69,1.16-25.63,8.45-33.07,19.11c-1.18,1.69-0.67,4.03,1.11,5.06 l7.66,4.42C27.48,24.04,37.97,17.5,50,17.5c12.03,0,22.52,6.54,28.14,16.25C80.91,38.53,82.5,44.08,82.5,50s-1.59,11.47-4.36,16.25 C72.52,75.96,62.03,82.5,50,82.5v8.85c0,2.07,1.78,3.66,3.84,3.49c13.69-1.16,25.63-8.45,33.07-19.11c1.18-1.69,0.67-4.03-1.11-5.06 l0.01,0c1.78,1.03,4.06,0.3,4.93-1.56C93.47,63.31,95,56.84,95,50C95,43.16,93.47,36.69,90.74,30.89z" stroke-miterlimit="10" stroke-linejoin="round" stroke-linecap="round" stroke-width="3.5" stroke="#323334" fill="#F6B26A" style="stroke:rgb(50, 51, 52);fill:rgb(246, 178, 106);animation-play-state:paused" ></path>
<path d="M35.02,41.19L50,50v32.5c12.03,0,22.52-6.54,28.14-16.25C80.91,61.47,82.5,55.92,82.5,50s-1.59-11.47-4.36-16.25 C72.52,24.04,62.03,17.5,50,17.5c-12.03,0-22.52,6.54-28.14,16.25l3.6,2.08l-0.06,0.1V52c0,1.71,1.43,3.09,3.16,3 c1.62-0.08,2.84-1.54,2.84-3.17v0c0-2.88,2.79-4.93,5.53-4.07l0,0c2.49,0.78,5.08,0.29,7.07-1.09" stroke-miterlimit="10" stroke-linejoin="round" stroke-linecap="round" stroke-width="3.5" stroke="#323334" fill="#F5E169" style="stroke:rgb(50, 51, 52);fill:rgb(245, 225, 105);animation-play-state:paused" ></path>
<metadata xmlns:d="https://loading.io/stock/" style="animation-play-state:paused" ><d:name style="animation-play-state:paused" >pizza</d:name>


<d:tags style="animation-play-state:paused" >pizza,delicious,food,yummy,bread,cheese</d:tags>


<d:license style="animation-play-state:paused" >by</d:license>


<d:slug style="animation-play-state:paused" >6iehiz</d:slug></metadata></g><!-- generated by https://loading.io/ --></svg>